<?xml version="1.0" encoding="iso-8859-1"?>
<!-- Generator: Adobe Illustrator 16.0.0, SVG Export Plug-In . SVG Version: 6.00 Build 0)  -->
<!DOCTYPE svg PUBLIC "-//W3C//DTD SVG 1.1//EN" "http://www.w3.org/Graphics/SVG/1.1/DTD/svg11.dtd">
<svg xmlns="http://www.w3.org/2000/svg" xmlns:xlink="http://www.w3.org/1999/xlink" version="1.1" id="Capa_1" x="0px" y="0px" width="512px" height="512px" viewBox="0 0 37.884 37.885" style="enable-background:new 0 0 37.884 37.885;" xml:space="preserve">
<g>
	<g>
		<path d="M31.212,8.157h-3.346L19.832,1.32c0.045-0.111,0.072-0.233,0.072-0.36c0-0.529-0.431-0.96-0.96-0.96    c-0.531,0-0.961,0.431-0.961,0.96c0,0.127,0.027,0.249,0.072,0.36l-8.034,6.837H6.674c-1.432,0-2.595,1.164-2.595,2.595V35.29    c0,1.433,1.163,2.595,2.595,2.595h21.606l5.524-5.525V10.752C33.806,9.321,32.642,8.157,31.212,8.157z M28.675,11.48    c0,0.771-0.626,1.396-1.396,1.396s-1.396-0.625-1.396-1.396s0.625-1.396,1.396-1.396S28.675,10.71,28.675,11.48z M18.458,1.767    c0.144,0.088,0.304,0.154,0.486,0.154s0.341-0.065,0.488-0.153l7.508,6.39H10.947L18.458,1.767z M24.507,11.48    c0,0.771-0.625,1.396-1.398,1.396c-0.77,0-1.394-0.625-1.394-1.396s0.624-1.396,1.394-1.396    C23.882,10.084,24.507,10.71,24.507,11.48z M20.339,11.48c0,0.771-0.626,1.396-1.396,1.396c-0.771,0-1.396-0.625-1.396-1.396    s0.626-1.396,1.396-1.396S20.339,10.71,20.339,11.48z M16.17,11.48c0,0.771-0.623,1.396-1.393,1.396    c-0.774,0-1.399-0.625-1.399-1.396s0.625-1.396,1.399-1.396C15.547,10.084,16.17,10.71,16.17,11.48z M10.607,10.084    c0.771,0,1.396,0.626,1.396,1.396s-0.625,1.396-1.396,1.396s-1.396-0.625-1.396-1.396S9.837,10.084,10.607,10.084z M32.392,31.773    l-0.294,0.291h-2.224c-1.038,0-1.887,0.852-1.887,1.889v2.224l-0.293,0.293H6.674c-0.651,0-1.18-0.528-1.18-1.18V14.527H32.39    v17.247H32.392z" fill="#ffab00"/>
		<path d="M18.826,22.434c1.792,0,3.244-0.58,3.244-1.298v-1.297c0,0.716-1.451,1.297-3.244,1.297c-1.792,0-3.244-0.581-3.244-1.297    v1.297C15.583,21.854,17.034,22.434,18.826,22.434z" fill="#ffab00"/>
		<path d="M18.826,20.755c1.792,0,3.244-0.581,3.244-1.298V18.16c0-0.717-1.451-1.298-3.244-1.298c-1.792,0-3.244,0.581-3.244,1.298    v1.297C15.583,20.175,17.034,20.755,18.826,20.755z M18.826,17.187c1.783,0,2.917,0.576,2.917,0.973    c0,0.396-1.135,0.973-2.917,0.973c-1.782,0-2.919-0.576-2.919-0.973C15.907,17.763,17.044,17.187,18.826,17.187z" fill="#ffab00"/>
		<path d="M18.707,18.506c-0.286,0-0.546-0.039-0.731-0.082l-0.132,0.22c0.166,0.042,0.454,0.076,0.75,0.082v0.178h0.432v-0.192    c0.507-0.038,0.785-0.182,0.785-0.349c0-0.169-0.212-0.273-0.736-0.352c-0.375-0.061-0.529-0.1-0.529-0.162    c0-0.053,0.092-0.106,0.379-0.106c0.317,0,0.521,0.043,0.636,0.064l0.129-0.213c-0.146-0.03-0.346-0.057-0.641-0.062v-0.166    h-0.433v0.179c-0.473,0.04-0.745,0.169-0.745,0.335c0,0.183,0.321,0.276,0.794,0.345c0.326,0.047,0.467,0.092,0.467,0.163    C19.13,18.465,18.958,18.506,18.707,18.506z" fill="#ffab00"/>
		<path d="M15.583,21.527v0.018c0.001,0,0.003,0.001,0.005,0.001C15.587,21.54,15.583,21.533,15.583,21.527z" fill="#ffab00"/>
		<path d="M22.07,21.527c0,0.717-1.451,1.297-3.244,1.297c-0.675,0-1.301-0.082-1.819-0.223c0.106,0.196,0.168,0.412,0.168,0.65    v0.684c0.486,0.116,1.046,0.187,1.651,0.187c1.792,0,3.244-0.58,3.244-1.298V21.527z" fill="#ffab00"/>
		<path d="M18.826,24.514c-0.605,0-1.165-0.07-1.651-0.188v0.918c0.792-0.479,1.984-0.709,3.129-0.709    c0.579,0,1.169,0.061,1.717,0.18c0.024-0.066,0.051-0.132,0.051-0.201v-1.298C22.07,23.934,20.619,24.514,18.826,24.514z" fill="#ffab00"/>
		<path d="M13.133,27.527c1.792,0,3.245-0.58,3.245-1.297v-1.299c0,0.717-1.453,1.297-3.245,1.297c-1.791,0-3.244-0.58-3.244-1.297    v1.297C9.889,26.947,11.342,27.527,13.133,27.527z" fill="#ffab00"/>
		<path d="M13.133,29.216c1.792,0,3.245-0.581,3.245-1.298v-1.297c0,0.717-1.453,1.297-3.245,1.297c-1.791,0-3.244-0.58-3.244-1.297    v1.297C9.889,28.635,11.342,29.216,13.133,29.216z" fill="#ffab00"/>
		<path d="M13.133,30.904c1.792,0,3.245-0.58,3.245-1.297v-1.297c0,0.717-1.453,1.297-3.245,1.297c-1.791,0-3.244-0.58-3.244-1.297    v1.297C9.889,30.324,11.342,30.904,13.133,30.904z" fill="#ffab00"/>
		<path d="M13.133,32.594c1.792,0,3.245-0.581,3.245-1.298v-1.298c0,0.717-1.453,1.298-3.245,1.298    c-1.791,0-3.244-0.581-3.244-1.298v1.298C9.889,32.013,11.342,32.594,13.133,32.594z" fill="#ffab00"/>
		<path d="M13.133,34.283c1.792,0,3.245-0.582,3.245-1.299v-1.297c0,0.717-1.453,1.297-3.245,1.297c-1.791,0-3.244-0.58-3.244-1.297    v1.297C9.889,33.701,11.342,34.283,13.133,34.283z" fill="#ffab00"/>
		<path d="M13.133,25.85c1.792,0,3.245-0.582,3.245-1.299v-1.298c0-0.716-1.453-1.297-3.245-1.297c-1.791,0-3.244,0.581-3.244,1.297    v1.298C9.889,25.268,11.342,25.85,13.133,25.85z M13.133,22.279c1.782,0,2.92,0.576,2.92,0.974s-1.138,0.974-2.92,0.974    c-1.781,0-2.919-0.576-2.919-0.974C10.214,22.857,11.353,22.279,13.133,22.279z" fill="#ffab00"/>
		<path d="M13.014,23.6c-0.286,0-0.546-0.039-0.731-0.082l-0.132,0.219c0.166,0.043,0.454,0.076,0.75,0.082v0.18h0.432v-0.191    c0.507-0.039,0.784-0.181,0.784-0.349c0-0.169-0.211-0.272-0.735-0.353c-0.375-0.061-0.53-0.101-0.53-0.162    c0-0.053,0.093-0.104,0.379-0.104c0.317,0,0.521,0.043,0.636,0.063l0.129-0.213c-0.146-0.029-0.345-0.057-0.64-0.062v-0.166    h-0.434v0.179c-0.472,0.039-0.744,0.17-0.744,0.334c0,0.182,0.321,0.276,0.793,0.344c0.326,0.047,0.468,0.094,0.468,0.164    C13.438,23.559,13.267,23.6,13.014,23.6z" fill="#ffab00"/>
		<path d="M20.303,29.607c-1.791,0-3.243-0.582-3.243-1.297v1.297c0,0.717,1.452,1.297,3.243,1.297c1.792,0,3.244-0.58,3.244-1.297    v-1.297C23.547,29.025,22.095,29.607,20.303,29.607z" fill="#ffab00"/>
		<path d="M20.303,31.296c-1.791,0-3.243-0.582-3.243-1.298v1.298c0,0.717,1.452,1.298,3.243,1.298c1.792,0,3.244-0.581,3.244-1.298    v-1.298C23.547,30.715,22.095,31.296,20.303,31.296z" fill="#ffab00"/>
		<path d="M20.303,32.984c-1.791,0-3.243-0.58-3.243-1.297v1.297c0,0.717,1.452,1.299,3.243,1.299c1.792,0,3.244-0.582,3.244-1.299    v-1.297C23.547,32.404,22.095,32.984,20.303,32.984z" fill="#ffab00"/>
		<path d="M17.061,26.631v1.297c0,0.717,1.452,1.299,3.243,1.299c1.792,0,3.244-0.582,3.244-1.299v-1.297    c0-0.717-1.452-1.298-3.244-1.298C18.512,25.333,17.061,25.914,17.061,26.631z M23.222,26.631c0,0.396-1.136,0.975-2.919,0.975    c-1.782,0-2.919-0.578-2.919-0.975s1.137-0.973,2.919-0.973C22.087,25.658,23.222,26.234,23.222,26.631z" fill="#ffab00"/>
		<path d="M20.091,25.838v0.18c-0.473,0.039-0.744,0.17-0.744,0.334c0,0.184,0.321,0.277,0.793,0.344    c0.326,0.047,0.469,0.094,0.469,0.166c0,0.074-0.172,0.115-0.424,0.115c-0.287,0-0.548-0.039-0.732-0.082l-0.131,0.219    c0.164,0.043,0.453,0.076,0.75,0.082v0.18h0.431v-0.191c0.508-0.039,0.785-0.182,0.785-0.35c0-0.17-0.212-0.273-0.735-0.354    c-0.375-0.06-0.529-0.099-0.529-0.16c0-0.053,0.092-0.105,0.379-0.105c0.316,0,0.521,0.044,0.636,0.064l0.129-0.213    c-0.146-0.029-0.345-0.056-0.64-0.062v-0.165L20.091,25.838L20.091,25.838z" fill="#ffab00"/>
		<polygon points="24.89,32.689 26.654,32.689 26.654,22.461 27.998,22.461 25.773,18.629 23.547,22.461 24.89,22.461   " fill="#ffab00"/>
	</g>
</g>
<g>
</g>
<g>
</g>
<g>
</g>
<g>
</g>
<g>
</g>
<g>
</g>
<g>
</g>
<g>
</g>
<g>
</g>
<g>
</g>
<g>
</g>
<g>
</g>
<g>
</g>
<g>
</g>
<g>
</g>
</svg>
