<?xml version="1.0"?>
<svg xmlns="http://www.w3.org/2000/svg" height="512px" viewBox="0 0 464 464" width="512px"><path d="m395.761719 352.910156-25.515625-7.847656-38.398438 38.402344 33.625 28.015625zm0 0" fill="#FFFFFF"/><path d="m360 332.6875v-7.511719c-11.785156 6.839844-25.425781 10.824219-40 10.824219s-28.214844-3.984375-40-10.824219v7.511719l40 40zm0 0" fill="#FFFFFF"/><path d="m240 240v-48h-8c-13.230469 0-24 10.769531-24 24s10.769531 24 24 24zm0 0" fill="#FFFFFF"/><path d="m0 280c0 13.230469 10.769531 24 24 24s24-10.769531 24-24v-184h-16v192h-16v-208h32v-16h-48zm0 0" fill="#FFFFFF"/><path d="m274.496094 411.503906 33.65625-28.039062-38.398438-38.402344-25.800781 7.9375zm0 0" fill="#FFFFFF"/><path d="m232 272h9.617188c-1.058594-5.167969-1.617188-10.519531-1.617188-16h-8c-2.734375 0-5.414062-.28125-8-.808594v8.808594c0 4.40625 3.59375 8 8 8zm0 0" fill="#FFFFFF"/><path d="m224 152v24.808594c2.585938-.527344 5.265625-.808594 8-.808594h9.472656c3.3125-9.289062 12.113282-16 22.527344-16h112c10.414062 0 19.214844 6.710938 22.527344 16h9.472656c2.734375 0 5.414062.28125 8 .808594v-24.808594c0-52.9375-43.0625-96-96-96s-96 43.0625-96 96zm0 0" fill="#FFFFFF"/><path d="m400 192v48h8c13.230469 0 24-10.769531 24-24s-10.769531-24-24-24zm0 0" fill="#FFFFFF"/><path d="m281.472656 288h-16.816406c11.085938 19.097656 31.710938 32 55.34375 32 35.289062 0 64-28.710938 64-64v-72c0-4.40625-3.59375-8-8-8h-112c-4.40625 0-8 3.59375-8 8v72c0 5.535156.777344 10.871094 2.105469 16h23.367187c3.3125-9.289062 12.113282-16 22.527344-16h32c13.230469 0 24 10.769531 24 24s-10.769531 24-24 24h-32c-10.414062 0-19.214844-6.710938-22.527344-16zm-1.472656-72c-4.414062 0-8-3.585938-8-8s3.585938-8 8-8 8 3.585938 8 8-3.585938 8-8 8zm72-8c0-4.414062 3.585938-8 8-8s8 3.585938 8 8-3.585938 8-8 8-8-3.585938-8-8zm0 0" fill="#FFFFFF"/><path d="m336 288c4.40625 0 8-3.59375 8-8s-3.59375-8-8-8h-32c-4.40625 0-8 3.59375-8 8s3.59375 8 8 8zm0 0" fill="#FFFFFF"/><path d="m96 224h64v48h-64zm0 0" fill="#FFFFFF"/><path d="m435.769531 365.214844-24.464843-7.527344-40.777344 78.832031-50.527344-42.105469-50.496094 42.082032-41.105468-78.710938-24.167969 7.429688c-16.886719 5.199218-28.230469 20.570312-28.230469 38.242187v60.542969h48v-40h16v40h160v-40h16v40h48v-60.542969c0-17.671875-11.34375-33.042969-28.230469-38.242187zm0 0" fill="#FFFFFF"/><path d="m246.726562 288h-14.726562c-13.230469 0-24-10.769531-24-24v-16.207031c-9.65625-7.3125-16-18.785157-16-31.792969s6.34375-24.488281 16-31.792969v-32.207031c0-44.566406 26.222656-83.015625 64-101.039062v-50.960938h-208v280c0 9.039062-3.128906 17.296875-8.207031 24h200.359375c-3.71875-4.9375-6.921875-10.273438-9.425782-16zm-6.726562-272h16v16h-16zm-160 0h144v16h-144zm0 32h144v16h-144zm0 32h112v16h-112zm0 32h112v16h-112zm0 32h112v16h-112zm96 144h-96v-80h96zm0-96h-96v-16h96zm0 0" fill="#FFFFFF"/></svg>
