<?xml version="1.0"?>
<svg xmlns="http://www.w3.org/2000/svg" height="512px" viewBox="0 0 512 512" width="512px"><path d="m497 0h-482c-8.285156 0-15 6.714844-15 15v361c0 8.285156 6.714844 15 15 15h196v91h-45c-8.285156 0-15 6.714844-15 15s6.714844 15 15 15h331c8.285156 0 15-6.714844 15-15 0-8.339844 0-478.640625 0-482 0-8.285156-6.714844-15-15-15zm-196 211h181v211h-181zm181-181v151h-152.527344c-19.714844-19.324219-45.761718-29.960938-73.472656-29.960938-28.074219 0-54.441406 10.910157-74.246094 30.714844-5.859375 5.859375-5.859375 15.355469 0 21.214844 5.855469 5.855469 15.355469 5.855469 21.214844 0 14.136719-14.140625 32.972656-21.929688 53.03125-21.929688 7.21875 0 14.269531 1.027344 21.007812 2.976563-3.640624 2.734375-6.007812 7.078125-6.007812 11.984375v17.578125c-15.832031-5.566406-34.179688-2.035156-46.820312 10.601563-5.859376 5.859374-5.859376 15.355468 0 21.214843 5.855468 5.859375 15.355468 5.859375 21.214843 0 2.832031-2.832031 6.597657-4.394531 10.605469-4.394531s7.773438 1.558594 10.605469 4.394531c1.308593 1.308594 2.804687 2.304688 4.394531 3.03125v52.574219h-241v-271zm-452 301h241v30h-241zm211 60h30v91h-30zm60 91v-30h181v30zm0 0" fill="#FFFFFF"/><path d="m160.539062 160.539062c52.640626-52.632812 138.285157-52.632812 190.921876 0 5.855468 5.859376 15.355468 5.859376 21.210937 0 5.859375-5.855468 5.859375-15.351562 0-21.210937-64.332031-64.332031-169.011719-64.332031-233.34375 0-5.859375 5.859375-5.859375 15.355469 0 21.210937 5.855469 5.859376 15.355469 5.859376 21.210937 0zm0 0" fill="#FFFFFF"/></svg>
