<?xml version="1.0"?>
<svg xmlns="http://www.w3.org/2000/svg" height="512px" viewBox="0 0 448 448.008" width="512px"><path d="m248.003906 248c4.417969 0 8-3.582031 8-8s-3.582031-8-8-8h-48c-4.417968 0-8 3.582031-8 8s3.582032 8 8 8zm0 0" fill="#ff0c70"/><path d="m208.46875 285.710938c5.402344-4.578126 12.546875-6.550782 19.535156-5.390626 11.726563 2.261719 20.148438 12.59375 20 24.535157v-.855469h64c4.417969 0 8-3.582031 8-8v-288c0-4.417969-3.582031-8-8-8h-176c-4.417968 0-8 3.582031-8 8v288c0 4.417969 3.582032 8 8 8h64c-.007812-7.042969 3.089844-13.734375 8.464844-18.289062zm63.535156-149.710938h-56v-16h56zm-56-40v-32h16v32zm32 0v-32h16v32zm32-32h16v32h-16zm-72-40h64v16h-64zm-32 0h16v16h-16zm24 40v32h-16v-32zm-24 56h24v16h-24zm0 32h96v16h-96zm80 32v16h-64v-16zm-88-88h-16v-32h16zm8 144c0-13.253906 10.746094-24 24-24h48c13.253906 0 24 10.746094 24 24s-10.746094 24-24 24h-48c-13.253906 0-24-10.746094-24-24zm0 0" fill="#ff0c70"/><path d="m321.402344 360.121094c-2.328125-.414063-4.722656.222656-6.539063 1.746094-1.8125 1.519531-2.859375 3.765624-2.859375 6.132812 0 4.417969-3.582031 8-8 8-4.417968 0-8-3.582031-8-8s-3.582031-8-8-8c-4.417968 0-8 3.582031-8 8s-3.582031 8-8 8c-4.417968 0-8-3.582031-8-8s-3.582031-8-8-8c-4.417968 0-8 3.582031-8 8s-3.582031 8-8 8c-4.417968 0-8-3.582031-8-8v-63.144531c.152344-4.109375-2.605468-7.757813-6.601562-8.734375-2.328125-.414063-4.722656.222656-6.539063 1.746094-1.8125 1.519531-2.859375 3.765624-2.859375 6.132812v112c0 2.882812-1.550781 5.542969-4.0625 6.960938-2.507812 1.421874-5.585937 1.378906-8.058594-.105469l-33.351562-20c-1.789062-1.082031-4.011719-1.164063-5.878906-.222657l-1.273438.625c-1.917968.964844-3.1875 2.867188-3.351562 5.007813-.164063 2.144531.804687 4.214844 2.550781 5.460937l48 34.28125h117.425781v-79.152343c.152344-4.109375-2.605468-7.757813-6.601562-8.734375zm0 0" fill="#ff0c70"/><path d="m8.003906 32c-4.417968 0-7.99999975 3.582031-7.99999975 8v224c0 4.417969 3.58203175 8 7.99999975 8h88v-240zm24 16h16v16h-16zm32 40v24h-16v-24zm-48 0h16v24h-16zm64 128h-32c-4.417968 0-8 3.582031-8 8s3.582032 8 8 8h32v16h-32c-13.253906 0-24-10.746094-24-24s10.746094-24 24-24h32zm0-32h-16v-16h16zm0-32h-32v-16h32zm0-88h-16v-16h16zm0 0" fill="#ff0c70"/><path d="m440.003906 32h-88v240h88c4.417969 0 8-3.582031 8-8v-224c0-4.417969-3.582031-8-8-8zm-72 16h40v16h-40zm32 40v24h-16v-24zm-32 48h24v16h-24zm0 32h16v16h-16zm32 80h-32v-16h32c4.417969 0 8-3.582031 8-8s-3.582031-8-8-8h-32v-16h32c13.253906 0 24 10.746094 24 24s-10.746094 24-24 24zm32-136h-16v-24h16zm0 0" fill="#ff0c70"/></svg>
